<?xml version="1.0" encoding="utf-8"?>
<!-- Generator: Adobe Illustrator 25.1.0, SVG Export Plug-In . SVG Version: 6.00 Build 0)  -->
<svg version="1.1" id="圖層_1" xmlns="http://www.w3.org/2000/svg" xmlns:xlink="http://www.w3.org/1999/xlink" x="0px" y="0px"
	 viewBox="0 0 50 50" style="enable-background:new 0 0 50 50;" xml:space="preserve">
<style type="text/css">
	.st0{fill:#60646A;}
</style>
<path class="st0" d="M22.5,50c-3.1,0-5.6-2.5-5.6-5.7v-0.9c0-0.1,0-0.2-0.1-0.2c-1.2-0.6-2.4-1.2-3.5-2c0,0-0.1,0-0.1,0
	c0,0-0.1,0-0.1,0l-0.8,0.5c-0.9,0.5-1.8,0.7-2.8,0.7c-0.5,0-1-0.1-1.5-0.2c-1.4-0.4-2.7-1.3-3.4-2.6l-2.5-4.3
	c-0.7-1.3-0.9-2.8-0.6-4.3c0.4-1.4,1.3-2.7,2.6-3.4L5,27.2c0.1,0,0.1-0.1,0.1-0.2c-0.1-1.3-0.1-2.7,0-4c0-0.1,0-0.2-0.1-0.2
	l-0.8-0.5c-1.3-0.8-2.2-2-2.6-3.4c-0.4-1.4-0.2-3,0.6-4.3l2.5-4.3c0.7-1.3,2-2.2,3.4-2.6c0.5-0.1,1-0.2,1.4-0.2c1,0,2,0.3,2.8,0.8
	l0.8,0.5c0,0,0.1,0,0.1,0c0,0,0.1,0,0.1,0c1.1-0.8,2.2-1.4,3.5-2c0.1,0,0.1-0.1,0.1-0.2V5.7c0-3.1,2.5-5.7,5.6-5.7h5
	c3.1,0,5.6,2.5,5.6,5.7v0.9c0,0.1,0,0.2,0.1,0.2c1.2,0.6,2.4,1.2,3.5,2c0,0,0.1,0,0.1,0c0,0,0.1,0,0.1,0l0.8-0.5
	c0.9-0.5,1.8-0.7,2.8-0.7c0.5,0,1,0.1,1.5,0.2c1.4,0.4,2.7,1.3,3.4,2.6l2.5,4.3c0.7,1.3,0.9,2.8,0.6,4.3c-0.4,1.4-1.3,2.7-2.6,3.4
	L45,22.8c-0.1,0-0.1,0.1-0.1,0.2c0.1,1.3,0.1,2.7,0,4c0,0.1,0,0.2,0.1,0.2l0.8,0.5c1.3,0.8,2.2,2,2.6,3.4c0.4,1.4,0.2,3-0.6,4.3
	l-2.5,4.3c-0.8,1.3-2,2.2-3.4,2.6c-0.5,0.1-1,0.2-1.5,0.2c-1,0-2-0.3-2.8-0.7l-0.8-0.5c0,0-0.1,0-0.1,0c0,0-0.1,0-0.1,0
	c-1.1,0.8-2.2,1.4-3.5,2c-0.1,0-0.1,0.1-0.1,0.2v0.9c0,3.1-2.5,5.7-5.6,5.7H22.5z M13.6,36.1c0.1,0,0.1,0,0.2,0.1l1,0.8
	c1.5,1.2,3.1,2.2,4.9,2.9l1.2,0.4c0.1,0,0.2,0.2,0.2,0.3v3.7c0,0.8,0.7,1.5,1.5,1.5h5c0.8,0,1.5-0.7,1.5-1.5v-3.7
	c0-0.1,0.1-0.2,0.2-0.3l1.2-0.4c1.8-0.6,3.5-1.6,4.9-2.9l1-0.8c0.1,0,0.1-0.1,0.2-0.1c0.1,0,0.1,0,0.1,0l3.3,1.9
	c0.2,0.1,0.5,0.2,0.7,0.2c0.1,0,0.3,0,0.4,0c0.4-0.1,0.7-0.3,0.9-0.7l2.5-4.3c0.2-0.3,0.2-0.7,0.1-1.1c-0.1-0.4-0.3-0.7-0.7-0.9
	l-3.2-1.9c-0.1-0.1-0.2-0.2-0.1-0.3l0.2-1.2c0.3-1.9,0.3-3.8,0-5.7l-0.2-1.2c0-0.1,0-0.2,0.1-0.3l3.2-1.9c0.3-0.2,0.6-0.5,0.7-0.9
	c0.1-0.4,0-0.8-0.1-1.1l-2.5-4.3c-0.2-0.3-0.5-0.6-0.9-0.7c-0.1,0-0.2,0-0.4,0c-0.3,0-0.5,0.1-0.7,0.2l-3.3,1.9c0,0-0.1,0-0.1,0
	c-0.1,0-0.1,0-0.2-0.1l-1-0.8c-1.5-1.2-3.1-2.2-4.9-2.9l-1.2-0.4C29,9.6,29,9.5,29,9.4V5.7c0-0.8-0.7-1.5-1.5-1.5h-5
	c-0.8,0-1.5,0.7-1.5,1.5v3.7c0,0.1-0.1,0.2-0.2,0.3l-1.2,0.4c-1.8,0.6-3.5,1.6-4.9,2.9l-1,0.8c-0.1,0-0.1,0.1-0.2,0.1
	c-0.1,0-0.1,0-0.1,0l-3.3-1.9c-0.2-0.1-0.5-0.2-0.7-0.2c-0.1,0-0.3,0-0.4,0c-0.4,0.1-0.7,0.3-0.9,0.7l-2.5,4.3
	c-0.2,0.3-0.2,0.7-0.1,1.1c0.1,0.4,0.3,0.7,0.7,0.9l3.2,1.9c0.1,0.1,0.2,0.2,0.1,0.3l-0.2,1.2c-0.3,1.9-0.3,3.8,0,5.7l0.2,1.2
	c0,0.1,0,0.2-0.1,0.3l-3.2,1.9c-0.3,0.2-0.6,0.5-0.7,0.9c-0.1,0.4,0,0.8,0.1,1.1l2.5,4.3c0.2,0.3,0.5,0.6,0.9,0.7
	c0.1,0,0.2,0.1,0.4,0.1c0.3,0,0.5-0.1,0.7-0.2l3.3-1.9C13.5,36.2,13.6,36.1,13.6,36.1z"/>
<path class="st0" d="M25,34.6c-2.6,0-5-1-6.8-2.8c-1.8-1.8-2.8-4.2-2.8-6.8c0-2.6,1-5,2.8-6.8c1.8-1.8,4.2-2.8,6.8-2.8
	c2.6,0,5,1,6.8,2.8c1.8,1.8,2.8,4.2,2.8,6.8c0,2.6-1,5-2.8,6.8C30,33.6,27.6,34.6,25,34.6L25,34.6z M25,19.4c-1.5,0-2.9,0.6-4,1.6
	c-1.1,1.1-1.6,2.5-1.6,4c0,1.5,0.6,2.9,1.6,4c1.1,1.1,2.5,1.6,4,1.6c1.5,0,2.9-0.6,4-1.6c1.1-1.1,1.6-2.5,1.6-4c0-1.5-0.6-2.9-1.6-4
	C27.9,20,26.5,19.4,25,19.4L25,19.4z"/>
</svg>
