<?xml version="1.0" encoding="utf-8"?>
<!-- Generator: Adobe Illustrator 25.1.0, SVG Export Plug-In . SVG Version: 6.00 Build 0)  -->
<svg version="1.1" id="圖層_1" xmlns="http://www.w3.org/2000/svg" xmlns:xlink="http://www.w3.org/1999/xlink" x="0px" y="0px"
	 viewBox="0 0 30 30" style="enable-background:new 0 0 30 30;" xml:space="preserve">
<style type="text/css">
	.st0{fill:#60646a;}
</style>
<path class="st0" d="M3.4,30c-0.8,0-1.6-0.3-2.2-0.8c-0.6-0.5-1-1.3-1.1-2.1c-0.1-0.8,0.1-1.6,0.5-2.3l0.6-1
	c0.4-0.6,0.7-1.2,1.1-1.9c0.1-0.2,0.1-0.4,0-0.5C0.8,19.2,0,16.7,0,14C0,6.3,6.7,0,15,0c8.3,0,15,6.3,15,14c0,7.7-6.7,14-15,14
	c-1.3,0-2.6-0.2-3.8-0.5c0,0-0.1,0-0.1,0c-0.1,0-0.2,0-0.3,0.1C8.6,29.2,6,30,3.4,30z M5.6,21.2c-0.5,1.5-1.2,2.9-2.1,4.2l-0.6,1
	c-0.1,0.2-0.1,0.4,0,0.5C3,27,3.2,27.2,3.4,27.2c2.6,0,5.1-1,7-2.8c1.5,0.6,3.1,0.9,4.6,0.9c6.7,0,12.2-5,12.2-11.2
	c0-6.2-5.5-11.2-12.2-11.2C8.3,2.8,2.8,7.9,2.8,14C2.9,16.7,3.8,19.2,5.6,21.2z"/>
<path class="st0" d="M10.1,14c0,1.1-0.9,1.9-1.9,1.9S6.3,15.1,6.3,14s0.9-1.9,1.9-1.9S10.1,13,10.1,14"/>
<path class="st0" d="M23.7,14c0,1.1-0.9,1.9-1.9,1.9c-1.1,0-1.9-0.9-1.9-1.9s0.9-1.9,1.9-1.9C22.9,12.1,23.7,13,23.7,14"/>
<path class="st0" d="M16.9,14c0,1.1-0.9,1.9-1.9,1.9s-1.9-0.9-1.9-1.9s0.9-1.9,1.9-1.9S16.9,13,16.9,14"/>
</svg>
