<?xml version="1.0" encoding="utf-8"?>
<!-- Generator: Adobe Illustrator 25.1.0, SVG Export Plug-In . SVG Version: 6.00 Build 0)  -->
<svg version="1.1" id="圖層_1" xmlns="http://www.w3.org/2000/svg" xmlns:xlink="http://www.w3.org/1999/xlink" x="0px" y="0px"
	 viewBox="0 0 30 30" style="enable-background:new 0 0 30 30;" xml:space="preserve">
<style type="text/css">
	.st0{fill:#60646a;}
</style>
<path class="st0" d="M15.4,30C8.8,29.9,3.2,24.9,2.6,18.2c-0.4-3.5,0.7-6.9,2.9-9.6c2.1-2.6,5.1-4.3,8.4-4.7v-1H11
	c-0.8-0.1-1.4-0.7-1.5-1.4C9.5,0.6,10.1,0,11,0h8.4c0.8,0,1.5,0.6,1.5,1.5c0,0.8-0.7,1.4-1.4,1.5h-2.6v0.9c2.7,0.3,5.3,1.4,7.4,3.3
	l2-2.2c0.3-0.3,0.6-0.4,1-0.4s0.8,0.2,1.1,0.4c0.5,0.6,0.5,1.5,0,2.1l-2.3,2.3c1.6,2.2,2.4,4.8,2.4,7.5C28.5,24.1,22.7,30,15.4,30
	L15.4,30z M15.4,6.8c-5.6,0-10.1,4.6-10.1,10.1C5.3,22.5,9.9,27,15.4,27s10.1-4.6,10.1-10.1C25.6,11.3,21,6.8,15.4,6.8z"/>
<path class="st0" d="M15.3,18.6c-0.7,0-1.3-0.6-1.3-1.3v-6.9c0-0.7,0.6-1.3,1.3-1.3s1.3,0.6,1.3,1.3v6.9C16.6,18,16,18.6,15.3,18.6z
	"/>
</svg>
