<?xml version="1.0" encoding="utf-8"?>
<!-- Generator: Adobe Illustrator 25.1.0, SVG Export Plug-In . SVG Version: 6.00 Build 0)  -->
<svg version="1.1" id="圖層_1" xmlns="http://www.w3.org/2000/svg" xmlns:xlink="http://www.w3.org/1999/xlink" x="0px" y="0px"
	 viewBox="0 0 50 50" style="enable-background:new 0 0 50 50;" xml:space="preserve">
<style type="text/css">
	.st0{fill:#60646A;}
</style>
<path class="st0" d="M36.5,0C32.4-0.3,28.2,1.1,25,4.3c-4.2,4.2-5.2,10.2-3.3,15.4L1.8,39.6c-2.4,2.4-2.4,6.3,0,8.6
	c2.4,2.4,6.3,2.4,8.6,0l19.9-19.9c5.2,1.9,11.2,0.8,15.4-3.3C49.9,20.8,51,14.6,49,9.4v0c-0.1-0.4-0.5-0.7-0.9-0.8
	c-0.4-0.1-0.8,0-1.1,0.3l-6.9,6.9c-1.7,1.7-4.3,1.7-6,0c-1.7-1.7-1.7-4.4,0-6L41,2.9l0,0c0.3-0.3,0.4-0.7,0.3-1.1
	c-0.1-0.4-0.4-0.7-0.8-0.9C39.3,0.4,37.9,0.2,36.5,0L36.5,0z M36.4,2.5c0.5,0,0.9,0.2,1.4,0.3l-5.4,5.4c-2.6,2.6-2.6,6.9,0,9.5
	c2.6,2.6,6.9,2.6,9.5,0l5.4-5.4c0.8,3.9-0.2,8-3.2,11c-3.7,3.7-9.1,4.5-13.5,2.6c-0.5-0.2-1-0.1-1.4,0.2L8.7,46.5
	c-1.4,1.4-3.7,1.4-5.2,0c-1.4-1.4-1.4-3.7,0-5.2L24,20.9v0c0.4-0.4,0.5-0.9,0.2-1.4c-2-4.5-1.1-9.9,2.6-13.5
	C29.4,3.4,32.9,2.2,36.4,2.5L36.4,2.5z"/>
</svg>
